<svg width="482" height="79" viewBox="0 0 482 79" fill="none" xmlns="http://www.w3.org/2000/svg">
<path fill-rule="evenodd" clip-rule="evenodd" d="M45.6509 20.2C41.1069 15.528 34.5469 13.192 25.9709 13.192H13.8749V65.8H25.9709C34.6109 65.8 41.2029 63.528 45.7469 58.984C50.2909 54.376 52.5629 47.944 52.5629 39.688C52.5629 31.368 50.2589 24.872 45.6509 20.2ZM42.1992 55.4606C45.5771 52.0277 47.5629 47.0003 47.5629 39.688C47.5629 32.3128 45.5458 27.2138 42.0911 23.7111L42.0788 23.6986L42.0666 23.6861C38.7344 20.26 33.6413 18.192 25.9709 18.192H18.8749V60.8H25.9709C33.7459 60.8 38.8797 58.7725 42.1992 55.4606ZM44.8829 69.064C39.5709 71.688 33.2669 73 25.9709 73H5.13888V6.088H25.9709C33.2669 6.088 39.5709 7.464 44.8829 10.216C50.2589 12.904 54.3549 16.776 57.1709 21.832C60.0509 26.888 61.4909 32.84 61.4909 39.688C61.4909 46.536 60.0509 52.488 57.1709 57.544C54.3549 62.536 50.2589 66.376 44.8829 69.064ZM47.151 5.7599C40.996 2.57874 33.8802 1.088 25.9709 1.088H0.138885V78H25.9709C33.8606 78 40.9558 76.5807 47.0973 73.5469L47.1082 73.5415L47.119 73.5361C53.3369 70.4272 58.19 65.9094 61.52 60.0108C64.8969 54.0789 66.4909 47.246 66.4909 39.688C66.4909 32.1352 64.8991 25.3065 61.527 19.3774C58.2079 13.4283 53.3669 8.87513 47.151 5.7599ZM115.934 30.56V47.76H91.5499V60.8H118.814V78H72.8139V0.991997H118.814V18.192H91.5499V30.56H115.934ZM86.5499 13.192H113.814V5.992H77.8139V73H113.814V65.8H86.5499V42.76H110.934V35.56H86.5499V13.192ZM139.094 75.9286L139.044 75.9053C134.906 73.9895 131.474 71.295 128.929 67.764L128.913 67.742L128.897 67.7198C126.302 64.0357 124.994 59.8182 124.913 55.2317L124.824 50.144H143.74L144.199 54.6364C144.398 56.5884 145.14 58.1352 146.493 59.4712C147.576 60.4367 149.51 61.28 153.049 61.28C156.403 61.28 158.368 60.4635 159.565 59.4303C160.885 58.283 161.489 56.9805 161.489 55.144C161.489 53.5432 161.073 52.7184 160.623 52.2071C159.773 51.2414 158.687 50.4686 157.264 49.908C155.406 49.176 152.767 48.3378 149.275 47.4021C144.742 46.219 140.931 44.9951 137.927 43.7077L137.907 43.6991L137.887 43.6902C134.453 42.1827 131.541 39.8553 129.156 36.8342L129.111 36.7775L129.068 36.7195C126.385 33.1114 125.297 28.6274 125.297 23.752C125.297 19.2093 126.467 15.0042 128.906 11.3044C131.319 7.64294 134.663 4.87962 138.761 2.9882L138.778 2.98065L138.794 2.97322C142.934 1.09837 147.528 0.223999 152.473 0.223999C159.586 0.223999 165.875 2.01384 170.918 5.9934C176.047 9.98865 178.981 15.4053 179.624 21.9166L180.167 27.408H160.635L160.087 23.0282C159.956 21.9781 159.428 20.8366 157.868 19.5718L157.836 19.5464L157.806 19.5206C156.554 18.4723 154.656 17.712 151.609 17.712C148.868 17.712 147.104 18.4144 145.882 19.4331L145.85 19.4597L145.817 19.4858C144.873 20.2464 144.225 21.3355 144.225 23.464C144.225 24.8897 144.584 25.6272 144.972 26.0862C145.848 27.0287 146.899 27.7726 148.18 28.322C150.028 29.0097 152.685 29.8484 156.212 30.8387C160.731 32.0834 164.538 33.3721 167.545 34.7286C171.049 36.2401 173.999 38.609 176.385 41.7034C179.202 45.2864 180.321 49.8284 180.321 54.76C180.321 58.9574 179.196 62.915 177.016 66.5485C174.755 70.3176 171.466 73.2484 167.384 75.405C163.141 77.6466 158.308 78.672 153.049 78.672C148.047 78.672 143.383 77.8002 139.145 75.9507L139.094 75.9286ZM172.441 44.776C170.521 42.28 168.217 40.456 165.529 39.304C162.841 38.088 159.289 36.872 154.873 35.656C151.225 34.632 148.377 33.736 146.329 32.968C144.345 32.136 142.649 30.952 141.241 29.416C139.897 27.88 139.225 25.896 139.225 23.464C139.225 20.072 140.377 17.448 142.681 15.592C144.985 13.672 147.961 12.712 151.609 12.712C155.513 12.712 158.649 13.704 161.017 15.688C163.385 17.608 164.729 19.848 165.049 22.408H174.649C174.472 20.6194 174.086 18.9528 173.49 17.408C172.359 14.4754 170.474 11.982 167.833 9.928C163.865 6.792 158.745 5.224 152.473 5.224C148.121 5.224 144.249 5.992 140.857 7.528C137.529 9.064 134.937 11.24 133.081 14.056C131.225 16.872 130.297 20.104 130.297 23.752C130.297 27.912 131.225 31.24 133.081 33.736C135.001 36.168 137.273 37.96 139.897 39.112C142.585 40.264 146.137 41.416 150.553 42.568C154.137 43.528 156.985 44.424 159.097 45.256C161.209 46.088 162.969 47.304 164.377 48.904C165.785 50.504 166.489 52.584 166.489 55.144C166.489 58.408 165.273 61.096 162.841 63.208C160.473 65.256 157.209 66.28 153.049 66.28C148.697 66.28 145.369 65.224 143.065 63.112C140.825 60.936 139.545 58.28 139.225 55.144H129.913C129.944 56.9079 130.199 58.5746 130.679 60.144C131.191 61.8203 131.96 63.3856 132.985 64.84C134.969 67.592 137.689 69.768 141.145 71.368C144.665 72.904 148.633 73.672 153.049 73.672C157.657 73.672 161.657 72.776 165.049 70.984C168.441 69.192 171.001 66.856 172.729 63.976C174.457 61.096 175.321 58.024 175.321 54.76C175.321 50.536 174.361 47.208 172.441 44.776ZM206.712 1.088V78H187.976V1.088H206.712ZM268.93 30.48L267.574 27.6268C266.117 24.5624 264.083 22.3212 261.453 20.7435L261.424 20.7264L261.396 20.709C258.765 19.0821 255.604 18.192 251.737 18.192C247.876 18.192 244.524 19.0812 241.562 20.7881L241.55 20.795L241.538 20.8018C238.704 22.4145 236.404 24.7712 234.64 28.0349C232.977 31.1646 232.065 34.9363 232.065 39.496C232.065 44.0487 232.974 47.8159 234.632 50.9428C236.386 54.1314 238.687 56.5082 241.55 58.1968C244.511 59.8426 247.869 60.704 251.737 60.704C257.19 60.704 261.297 59.1099 264.472 56.1761C266.513 54.2898 268.076 51.9387 269.095 49.008H243.569V31.904H289.569V43.8561L289.548 44.0871C288.963 50.3754 286.977 56.197 283.599 61.4839L283.59 61.4974L283.582 61.5107C280.188 66.7484 275.71 70.9239 270.212 74.0025L270.19 74.015L270.168 74.0272C264.577 77.0837 258.398 78.576 251.737 78.576C244.721 78.576 238.205 76.939 232.294 73.6139L232.274 73.6023L232.253 73.5905C226.361 70.2026 221.67 65.5042 218.229 59.5734L218.217 59.5533L218.206 59.5331C214.794 53.5262 213.137 46.8052 213.137 39.496C213.137 32.1868 214.794 25.4658 218.206 19.4589L218.21 19.4502L218.215 19.4416C221.654 13.4423 226.353 8.72474 232.274 5.38958C238.186 1.99488 244.709 0.319996 251.737 0.319996C259.704 0.319996 266.934 2.30604 273.258 6.39465C279.696 10.5151 284.354 16.3351 287.212 23.6633L289.87 30.48H268.93ZM270.553 10.6C265.113 7.07999 258.841 5.32 251.737 5.32C245.529 5.32 239.865 6.792 234.745 9.736C229.625 12.616 225.561 16.68 222.553 21.928C219.609 27.112 218.137 32.968 218.137 39.496C218.137 46.024 219.609 51.88 222.553 57.064C225.561 62.248 229.625 66.312 234.745 69.256C239.865 72.136 245.529 73.576 251.737 73.576C257.625 73.576 262.969 72.264 267.769 69.64C272.569 66.952 276.441 63.336 279.385 58.792C282.329 54.184 284.057 49.128 284.569 43.624V36.904H248.569V44.008H275.257C275.071 45.7712 274.761 47.4379 274.327 49.008C273.124 53.3649 270.97 56.9782 267.865 59.848C263.641 63.752 258.265 65.704 251.737 65.704C247.065 65.704 242.841 64.648 239.065 62.536C235.353 60.36 232.409 57.288 230.233 53.32C228.121 49.352 227.065 44.744 227.065 39.496C227.065 34.248 228.121 29.64 230.233 25.672C232.409 21.64 235.353 18.568 239.065 16.456C242.841 14.28 247.065 13.192 251.737 13.192C256.409 13.192 260.505 14.28 264.025 16.456C267.545 18.568 270.233 21.576 272.089 25.48H282.553C281.86 23.7022 281.051 22.0356 280.125 20.48C277.719 16.4356 274.528 13.1422 270.553 10.6ZM358.528 78H342.1L314.656 36.3841V78H295.92V0.991997H312.346L339.792 42.5369V0.991997H358.528V78ZM344.792 59.176L309.656 5.992H300.92V73H309.656V19.72L344.792 73H353.528V5.992H344.792V59.176ZM411.34 30.56V47.76H386.956V60.8H414.22V78H368.22V0.991997H414.22V18.192H386.956V30.56H411.34ZM381.956 13.192H409.22V5.992H373.22V73H409.22V65.8H381.956V42.76H406.34V35.56H381.956V13.192ZM459.597 78L443.661 50.64H440.975V78H422.239V1.088H448.839C454.434 1.088 459.5 2.04032 463.828 4.20018C468.085 6.29349 471.499 9.25281 473.791 13.157C476.016 16.948 477.071 21.1992 477.071 25.768C477.071 31.4148 475.401 36.5472 472.031 40.9704C469.825 43.9222 466.971 46.1456 463.615 47.7231L481.761 78H459.597ZM472.935 73H462.471L446.535 45.64H435.975V73H427.239V6.088H448.839C453.895 6.088 458.151 6.952 461.607 8.68C465.127 10.408 467.751 12.744 469.479 15.688C471.207 18.632 472.071 21.992 472.071 25.768C472.071 30.376 470.727 34.44 468.039 37.96C466.296 40.2986 463.959 42.1146 461.029 43.408C459.549 44.0614 457.918 44.5814 456.135 44.968L472.935 73ZM456.087 20.2105L456.062 20.1871C455.066 19.2463 453.003 18.288 448.839 18.288H440.975V33.632H448.839C452.809 33.632 454.883 32.6721 455.984 31.6152C457.245 30.3421 458.047 28.5647 458.047 25.768C458.047 22.8475 457.216 21.2483 456.112 20.2336L456.087 20.2105ZM459.495 35.176C457.127 37.48 453.575 38.632 448.839 38.632H435.975V13.288H448.839C453.639 13.288 457.191 14.376 459.495 16.552C461.863 18.728 463.047 21.8 463.047 25.768C463.047 29.672 461.863 32.808 459.495 35.176ZM201.712 6.088H192.976V73H201.712V6.088Z" fill="white"/>
</svg>
